<svg xmlns="http://www.w3.org/2000/svg" viewBox="0 0 671 142">
  <title>Phonic logo</title>
  <path d="M616.734 115.367H609.747C573.999 115.367 555.312 105.13 555.312 74.5811V66.944C555.312 36.2331 573.999 25.9961 609.747 25.9961H616.734C651.02 25.9961 667.269 36.883 670.519 55.5696H647.283C642.246 47.2825 633.634 44.1952 614.297 44.1952C590.248 44.1952 577.899 47.9325 577.899 68.2439V73.1187C577.899 93.4302 590.248 97.1675 614.297 97.1675C633.634 97.1675 642.246 94.0801 647.283 85.793H670.519C667.269 104.48 651.02 115.367 616.734 115.367Z" fill="black"></path>
  <path d="M538.139 0V16.0867H515.391V0H538.139ZM538.139 27.6236V113.744H515.391V27.6236H538.139Z" fill="black"></path>
  <path d="M496.717 113.742H474.13V64.9941C474.13 46.9575 462.106 44.1952 447.319 44.1952C427.983 44.1952 415.796 50.2074 415.796 69.0564V113.742H393.047V27.621H415.796V43.5452H416.771C421.808 33.6332 432.695 25.9961 454.469 25.9961C478.193 25.9961 496.717 32.6583 496.717 61.2568V113.742Z" fill="black"></path>
  <path d="M321.201 115.367H311.127C275.704 115.367 256.367 105.13 256.367 74.5811V66.944C256.367 36.2331 275.704 25.9961 311.127 25.9961H321.201C356.787 25.9961 376.124 36.2331 376.124 66.944V74.5811C376.124 105.13 356.787 115.367 321.201 115.367ZM316.327 97.1675C340.538 97.1675 353.537 93.4302 353.537 73.1187V68.2439C353.537 47.9325 340.538 44.1952 316.327 44.1952C291.79 44.1952 278.954 47.9325 278.954 68.2439V73.1187C278.954 93.4302 291.79 97.1675 316.327 97.1675Z" fill="black"></path>
  <path d="M240.447 113.744H217.861V64.9967C217.861 46.9601 205.836 44.1978 191.05 44.1978C171.713 44.1978 159.526 50.2099 159.526 69.059V113.744H136.777V0H159.526V43.5478H160.501C165.538 33.6358 176.425 25.9987 198.199 25.9987C221.923 25.9987 240.447 32.6608 240.447 61.2594V113.744Z" fill="black"></path>
  <path d="M0 27.621H22.5863V43.5452H23.2363C28.761 31.5208 41.7604 25.9961 65.4842 25.9961H70.0339C101.07 25.9961 119.756 36.2331 119.756 66.7815V74.4186C119.756 105.13 101.07 115.367 70.0339 115.367H65.4842C41.7604 115.367 28.761 109.842 23.2363 97.8174H22.5863V141.365H0V27.621ZM59.7969 44.1952C35.5857 44.1952 22.5863 47.9325 22.5863 67.7565V73.1187C22.5863 93.4302 35.5857 97.1675 59.7969 97.1675C84.3332 97.1675 97.17 93.4302 97.17 73.1187V68.2439C97.17 47.9325 84.3332 44.1952 59.7969 44.1952Z" fill="black"></path>
</svg>
